<svg width="270" height="261" viewBox="0 0 270 261" fill="none" xmlns="http://www.w3.org/2000/svg">
<path d="M39.016 4.392C42.856 6.184 45.864 8.84 48.04 12.36C50.28 15.88 51.4 19.784 51.4 24.072C51.4 29.064 49.864 33.544 46.792 37.512C43.784 41.416 39.912 44.008 35.176 45.288L52.168 69H47.944L31.528 45.96L28.456 46.056H4.36V69H0.807999V2.184H26.248C29.064 2.184 31.464 2.376 33.448 2.75999C35.496 3.07999 37.352 3.62399 39.016 4.392ZM29.416 42.504C32.744 42.504 35.816 41.672 38.632 40.008C41.448 38.344 43.688 36.104 45.352 33.288C47.016 30.472 47.848 27.4 47.848 24.072C47.848 20.36 46.856 17 44.872 13.992C42.952 10.984 40.264 8.744 36.808 7.272C34.312 6.248 30.792 5.736 26.248 5.736H4.36V42.504H29.416Z" fill="black"/>
<path d="M95.5825 0.743998C100.574 0.743998 105.183 1.992 109.407 4.488C113.631 6.92 116.959 10.248 119.391 14.472C121.887 18.696 123.134 23.304 123.134 28.296V42.888C123.134 47.88 121.887 52.488 119.391 56.712C116.959 60.936 113.631 64.296 109.407 66.792C105.183 69.224 100.574 70.44 95.5825 70.44C90.5905 70.44 85.9825 69.224 81.7585 66.792C77.5345 64.296 74.1745 60.936 71.6785 56.712C69.2465 52.488 68.0305 47.88 68.0305 42.888V28.296C68.0305 23.304 69.2465 18.696 71.6785 14.472C74.1745 10.248 77.5345 6.92 81.7585 4.488C85.9825 1.992 90.5905 0.743998 95.5825 0.743998ZM71.5825 42.888C71.5825 47.24 72.6385 51.272 74.7505 54.984C76.9265 58.632 79.8385 61.544 83.4865 63.72C87.1985 65.832 91.2305 66.888 95.5825 66.888C99.9345 66.888 103.935 65.832 107.583 63.72C111.295 61.544 114.207 58.632 116.319 54.984C118.495 51.272 119.582 47.24 119.582 42.888V28.296C119.582 23.944 118.495 19.944 116.319 16.296C114.207 12.584 111.295 9.672 107.583 7.56C103.935 5.384 99.9345 4.296 95.5825 4.296C91.2305 4.296 87.1985 5.384 83.4865 7.56C79.8385 9.672 76.9265 12.584 74.7505 16.296C72.6385 19.944 71.5825 23.944 71.5825 28.296V42.888Z" fill="black"/>
<path d="M165.973 2.184C170.837 2.184 175.317 3.4 179.413 5.832C183.573 8.264 186.869 11.56 189.301 15.72C191.733 19.816 192.949 24.296 192.949 29.16V42.024C192.949 46.888 191.733 51.4 189.301 55.56C186.869 59.656 183.573 62.92 179.413 65.352C175.317 67.784 170.837 69 165.973 69H141.301V2.184H165.973ZM189.397 29.16C189.397 24.936 188.341 21.032 186.229 17.448C184.117 13.864 181.237 11.016 177.589 8.904C174.005 6.792 170.101 5.736 165.877 5.736H144.853V65.448H165.877C170.101 65.448 174.005 64.392 177.589 62.28C181.237 60.168 184.117 57.32 186.229 53.736C188.341 50.152 189.397 46.248 189.397 42.024V29.16Z" fill="black"/>
<path d="M237.708 0.743998C242.7 0.743998 247.307 1.992 251.531 4.488C255.755 6.92 259.083 10.248 261.515 14.472C264.011 18.696 265.26 23.304 265.26 28.296V42.888C265.26 47.88 264.011 52.488 261.515 56.712C259.083 60.936 255.755 64.296 251.531 66.792C247.307 69.224 242.7 70.44 237.708 70.44C232.715 70.44 228.107 69.224 223.883 66.792C219.66 64.296 216.299 60.936 213.803 56.712C211.371 52.488 210.156 47.88 210.156 42.888V28.296C210.156 23.304 211.371 18.696 213.803 14.472C216.299 10.248 219.66 6.92 223.883 4.488C228.107 1.992 232.715 0.743998 237.708 0.743998ZM213.708 42.888C213.708 47.24 214.764 51.272 216.876 54.984C219.051 58.632 221.964 61.544 225.611 63.72C229.324 65.832 233.355 66.888 237.708 66.888C242.06 66.888 246.06 65.832 249.708 63.72C253.42 61.544 256.331 58.632 258.443 54.984C260.619 51.272 261.708 47.24 261.708 42.888V28.296C261.708 23.944 260.619 19.944 258.443 16.296C256.331 12.584 253.42 9.672 249.708 7.56C246.06 5.384 242.06 4.296 237.708 4.296C233.355 4.296 229.324 5.384 225.611 7.56C221.964 9.672 219.051 12.584 216.876 16.296C214.764 19.944 213.708 23.944 213.708 28.296V42.888Z" fill="black"/>
<path d="M3.88 165V98.184H7.432V161.448H53.992V165H3.88Z" fill="black"/>
<path d="M73.4065 98.184H123.231V101.736H76.9585V129.768H114.399V133.32H76.9585V165H73.4065V98.184Z" fill="black"/>
<path d="M166.645 96.744C171.637 96.744 176.245 97.992 180.469 100.488C184.693 102.92 188.021 106.248 190.453 110.472C192.949 114.696 194.197 119.304 194.197 124.296V138.888C194.197 143.88 192.949 148.488 190.453 152.712C188.021 156.936 184.693 160.296 180.469 162.792C176.245 165.224 171.637 166.44 166.645 166.44C161.653 166.44 157.045 165.224 152.821 162.792C148.597 160.296 145.237 156.936 142.741 152.712C140.309 148.488 139.093 143.88 139.093 138.888V124.296C139.093 119.304 140.309 114.696 142.741 110.472C145.237 106.248 148.597 102.92 152.821 100.488C157.045 97.992 161.653 96.744 166.645 96.744ZM142.645 138.888C142.645 143.24 143.701 147.272 145.813 150.984C147.989 154.632 150.901 157.544 154.549 159.72C158.261 161.832 162.293 162.888 166.645 162.888C170.997 162.888 174.997 161.832 178.645 159.72C182.357 157.544 185.269 154.632 187.381 150.984C189.557 147.272 190.645 143.24 190.645 138.888V124.296C190.645 119.944 189.557 115.944 187.381 112.296C185.269 108.584 182.357 105.672 178.645 103.56C174.997 101.384 170.997 100.296 166.645 100.296C162.293 100.296 158.261 101.384 154.549 103.56C150.901 105.672 147.989 108.584 145.813 112.296C143.701 115.944 142.645 119.944 142.645 124.296V138.888Z" fill="black"/>
<path d="M206.219 98.088H269.196L237.708 166.344L206.219 98.088ZM237.708 157.896L263.723 101.64H211.787L237.708 157.896Z" fill="black"/>
<path d="M46.216 194.184V197.736H26.248V257.448H46.216V261H2.92V257.448H22.792V197.736H2.92V194.184H46.216Z" fill="black"/>
<path d="M93.7585 194.184H97.5025L124.959 261H121.118L112.095 238.92H79.1665L70.0465 261H66.3025L93.7585 194.184ZM80.6065 235.464H110.655L95.5825 198.792L80.6065 235.464Z" fill="black"/>
<path d="M140.533 261V194.184H144.277L190.933 239.496V194.184H194.485V261H190.933V244.488L144.085 198.792V261H140.533Z" fill="black"/>
<path d="M235.883 194.184H239.628L267.084 261H263.244L254.219 238.92H221.292L212.171 261H208.428L235.883 194.184ZM222.732 235.464H252.779L237.708 198.792L222.732 235.464Z" fill="black"/>
</svg>
