<?xml version="1.0" standalone="no"?>
<!DOCTYPE svg PUBLIC "-//W3C//DTD SVG 20010904//EN"
 "http://www.w3.org/TR/2001/REC-SVG-20010904/DTD/svg10.dtd">
<svg version="1.0" xmlns="http://www.w3.org/2000/svg"
 width="720.000000pt" height="720.000000pt" viewBox="0 0 720.000000 720.000000"
 preserveAspectRatio="xMidYMid meet">
<metadata>
Created by potrace 1.14, written by Peter Selinger 2001-2017
</metadata>
<g transform="translate(0.000000,720.000000) scale(0.100000,-0.100000)"
fill="#000000" stroke="none">
<path d="M860 7111 c0 -18 0 -6447 0 -6848 l0 -263 189 0 189 0 0 1202 c1 662
1 1212 1 1224 l1 21 1338 0 c735 1 1386 4 1445 6 93 4 111 3 123 -11 11 -15
79 -108 122 -169 36 -51 185 -261 198 -278 8 -11 41 -58 74 -105 33 -47 68
-96 77 -109 10 -13 61 -85 115 -160 53 -75 130 -183 172 -241 41 -58 112 -157
157 -220 45 -63 98 -137 117 -165 19 -27 39 -52 44 -53 4 -2 8 -8 8 -13 0 -6
15 -30 33 -54 17 -24 43 -60 57 -80 14 -19 33 -45 43 -57 9 -11 17 -24 17 -28
0 -4 10 -19 23 -33 12 -14 38 -48 57 -77 19 -28 51 -72 70 -98 19 -26 40 -55
45 -64 14 -22 186 -264 205 -287 8 -10 35 -48 60 -84 l45 -67 223 0 c122 0
222 3 222 6 0 3 -40 62 -90 130 -49 69 -90 129 -90 134 0 4 -3 10 -7 12 -10 4
-73 85 -73 92 0 3 -7 14 -15 23 -8 10 -60 81 -115 158 -54 77 -106 149 -114
160 -8 11 -64 90 -125 175 -61 85 -116 163 -123 172 -7 9 -65 89 -128 178 -63
89 -143 199 -177 246 -35 47 -63 89 -63 95 0 5 -3 9 -8 9 -4 0 -18 18 -32 40
-14 22 -28 40 -32 40 -5 0 -8 7 -8 15 0 8 -4 15 -10 15 -5 0 -10 7 -10 15 0 8
-3 15 -7 15 -5 0 -19 17 -33 38 -50 75 -125 177 -132 180 -5 2 -8 10 -8 17 0
8 -6 18 -13 22 -6 4 -29 33 -49 63 -37 56 -119 169 -260 363 -43 59 -78 109
-78 111 0 5 63 27 85 30 8 1 18 5 21 9 4 4 13 7 21 7 43 0 355 143 483 221
196 120 428 323 569 499 29 36 59 73 66 82 30 38 125 177 155 228 130 221 230
474 276 695 25 123 29 155 41 305 12 148 6 414 -11 510 -2 14 -7 43 -10 65 -3
22 -8 51 -11 65 -3 14 -8 39 -11 55 -2 17 -10 48 -15 70 -6 22 -12 47 -14 55
-19 96 -172 467 -197 478 -5 2 -8 9 -8 16 0 8 -9 25 -20 39 -12 15 -21 29 -20
32 2 17 -156 242 -235 335 -60 71 -212 217 -285 275 -41 33 -76 63 -78 68 -2
4 -10 7 -17 7 -7 0 -15 3 -17 8 -5 10 -66 52 -77 52 -5 0 -11 4 -13 8 -6 15
-184 113 -295 161 -154 69 -285 111 -433 140 -30 6 -66 14 -80 17 -14 3 -41 7
-60 10 -19 2 -46 7 -60 10 -55 12 -186 28 -325 40 -33 3 -743 7 -1577 9 -1396
2 -1518 1 -1518 -14z m3090 -375 c141 -11 270 -27 350 -41 130 -24 307 -72
375 -102 22 -9 42 -17 45 -18 12 -2 179 -87 220 -111 200 -119 385 -281 518
-454 23 -30 45 -59 50 -65 30 -38 147 -235 181 -307 41 -87 97 -229 105 -271
3 -12 12 -49 21 -81 21 -77 44 -203 52 -291 9 -94 9 -312 0 -405 -15 -143 -75
-399 -116 -495 -72 -165 -69 -158 -129 -263 -52 -92 -124 -198 -191 -282 -96
-120 -333 -332 -456 -407 -92 -56 -203 -117 -268 -147 -81 -38 -266 -102 -319
-111 -17 -3 -34 -8 -38 -10 -11 -7 -186 -33 -270 -41 -94 -9 -2818 -11 -2832
-3 -7 5 -10 640 -10 1950 1 1069 1 1949 1 1956 1 9 320 11 1319 8 724 -1 1351
-5 1392 -9z"/>
</g>
</svg>
